<svg width="24" height="24" viewBox="0 0 24 24" fill="none" xmlns="http://www.w3.org/2000/svg">
<g opacity="0.98">
<path d="M6 20C5.45 20 4.97917 19.8042 4.5875 19.4125C4.19583 19.0208 4 18.55 4 18V6C4 5.45 4.19583 4.97917 4.5875 4.5875C4.97917 4.19583 5.45 4 6 4H8C8 2.9 8.39167 1.95833 9.175 1.175C9.95833 0.391667 10.9 0 12 0C13.1 0 14.0417 0.391667 14.825 1.175C15.6083 1.95833 16 2.9 16 4H18C18.55 4 19.0208 4.19583 19.4125 4.5875C19.8042 4.97917 20 5.45 20 6V18C20 18.55 19.8042 19.0208 19.4125 19.4125C19.0208 19.8042 18.55 20 18 20H6ZM10 4H14C14 3.45 13.8042 2.97917 13.4125 2.5875C13.0208 2.19583 12.55 2 12 2C11.45 2 10.9792 2.19583 10.5875 2.5875C10.1958 2.97917 10 3.45 10 4ZM15 9C15.2833 9 15.5208 8.90417 15.7125 8.7125C15.9042 8.52083 16 8.28333 16 8V6H14V8C14 8.28333 14.0958 8.52083 14.2875 8.7125C14.4792 8.90417 14.7167 9 15 9ZM9 9C9.28333 9 9.52083 8.90417 9.7125 8.7125C9.90417 8.52083 10 8.28333 10 8V6H8V8C8 8.28333 8.09583 8.52083 8.2875 8.7125C8.47917 8.90417 8.71667 9 9 9Z" fill="#000000"/>
</g>
</svg>
