<svg width="48" height="48" viewBox="0 0 48 48" fill="none" xmlns="http://www.w3.org/2000/svg">
<rect x="0.5" y="0.5" width="47" height="47" rx="7.5" fill="#E9E8E7"/>
<rect x="0.5" y="0.5" width="47" height="47" rx="7.5" stroke="#E3E2E2"/>
<path d="M26.3332 25.1667C25.3609 25.1667 24.5346 24.8265 23.854 24.1459C23.1734 23.4654 22.8332 22.639 22.8332 21.6667C22.8332 20.6945 23.1734 19.8681 23.854 19.1876C24.5346 18.507 25.3609 18.1667 26.3332 18.1667C27.3054 18.1667 28.1318 18.507 28.8123 19.1876C29.4929 19.8681 29.8332 20.6945 29.8332 21.6667C29.8332 22.639 29.4929 23.4654 28.8123 24.1459C28.1318 24.8265 27.3054 25.1667 26.3332 25.1667ZM18.1665 28.6667C17.5248 28.6667 16.9755 28.4383 16.5186 27.9813C16.0616 27.5244 15.8332 26.9751 15.8332 26.3334V17.0001C15.8332 16.3584 16.0616 15.8091 16.5186 15.3522C16.9755 14.8952 17.5248 14.6667 18.1665 14.6667H34.4998C35.1415 14.6667 35.6908 14.8952 36.1478 15.3522C36.6047 15.8091 36.8332 16.3584 36.8332 17.0001V26.3334C36.8332 26.9751 36.6047 27.5244 36.1478 27.9813C35.6908 28.4383 35.1415 28.6667 34.4998 28.6667H18.1665ZM20.4998 26.3334H32.1665C32.1665 25.6917 32.395 25.1424 32.8519 24.6855C33.3089 24.2286 33.8582 24.0001 34.4998 24.0001V19.3334C33.8582 19.3334 33.3089 19.1049 32.8519 18.648C32.395 18.1911 32.1665 17.6417 32.1665 17.0001H20.4998C20.4998 17.6417 20.2714 18.1911 19.8144 18.648C19.3575 19.1049 18.8082 19.3334 18.1665 19.3334V24.0001C18.8082 24.0001 19.3575 24.2286 19.8144 24.6855C20.2714 25.1424 20.4998 25.6917 20.4998 26.3334ZM33.3332 33.3334H13.4998C12.8582 33.3334 12.3089 33.1049 11.8519 32.648C11.395 32.1911 11.1665 31.6417 11.1665 31.0001V18.1667H13.4998V31.0001H33.3332V33.3334ZM18.1665 26.3334V17.0001V26.3334Z" fill="#4CAF50"/>
</svg>
