<svg width="24" height="24" viewBox="0 0 24 24" fill="none" xmlns="http://www.w3.org/2000/svg">
<path d="M21.75 20.0625L15.9338 14.2453C16.8711 12.9572 17.3753 11.4049 17.3737 9.81187C17.3737 5.64234 13.9814 2.25 9.81187 2.25C5.64234 2.25 2.25 5.64234 2.25 9.81187C2.25 13.9814 5.64234 17.3737 9.81187 17.3737C11.4049 17.3753 12.9572 16.8711 14.2453 15.9338L20.0625 21.75L21.75 20.0625ZM9.81187 14.9855C7.71908 14.9857 5.83225 13.7251 5.03129 11.7917C4.23032 9.85819 4.67296 7.63262 6.15279 6.15279C7.63262 4.67296 9.85819 4.23032 11.7917 5.03129C13.7251 5.83225 14.9857 7.71908 14.9855 9.81187C14.9821 12.6678 12.6678 14.9821 9.81187 14.9855Z" fill="#8C8C8C"/>
</svg>
