<svg width="24" height="24" viewBox="0 0 24 24" fill="none" xmlns="http://www.w3.org/2000/svg">
<path d="M7.5 15.75V2.25L9 3L10.5 2.25L11.9972 3L13.5145 2.25L15 3L16.4902 2.25L17.9869 3L19.5 2.25L21.0005 3L22.5 2.25V12.75" stroke="#8C8C8C" stroke-width="1.5" stroke-linejoin="round"/>
<path d="M22.5 12.75V18C22.5 20.0697 20.8197 21.75 18.75 21.75V21.75C16.6803 21.75 15 20.0697 15 18V15.75H2.25003C2.05058 15.7482 1.85879 15.8267 1.71775 15.9677C1.57671 16.1088 1.49826 16.3006 1.50003 16.5C1.50003 19.5 1.81597 21.75 5.25003 21.75H18.75" stroke="#8C8C8C" stroke-width="1.5" stroke-linejoin="round"/>
<path d="M10.5 6.75H19.5M13.5 10.5H19.5" stroke="#8C8C8C" stroke-width="1.5" stroke-linecap="round" stroke-linejoin="round"/>
</svg>
