<svg width="26" height="19" viewBox="0 0 26 19" fill="none" xmlns="http://www.w3.org/2000/svg">
<path d="M15.1667 10.5C14.1944 10.5 13.3681 10.1597 12.6875 9.47917C12.0069 8.79861 11.6667 7.97222 11.6667 7C11.6667 6.02778 12.0069 5.20139 12.6875 4.52083C13.3681 3.84028 14.1944 3.5 15.1667 3.5C16.1389 3.5 16.9653 3.84028 17.6458 4.52083C18.3264 5.20139 18.6667 6.02778 18.6667 7C18.6667 7.97222 18.3264 8.79861 17.6458 9.47917C16.9653 10.1597 16.1389 10.5 15.1667 10.5ZM7 14C6.35833 14 5.80903 13.7715 5.35208 13.3146C4.89514 12.8576 4.66667 12.3083 4.66667 11.6667V2.33333C4.66667 1.69167 4.89514 1.14236 5.35208 0.685417C5.80903 0.228472 6.35833 0 7 0H23.3333C23.975 0 24.5243 0.228472 24.9813 0.685417C25.4382 1.14236 25.6667 1.69167 25.6667 2.33333V11.6667C25.6667 12.3083 25.4382 12.8576 24.9813 13.3146C24.5243 13.7715 23.975 14 23.3333 14H7ZM9.33333 11.6667H21C21 11.025 21.2285 10.4757 21.6854 10.0188C22.1424 9.56181 22.6917 9.33333 23.3333 9.33333V4.66667C22.6917 4.66667 22.1424 4.43819 21.6854 3.98125C21.2285 3.52431 21 2.975 21 2.33333H9.33333C9.33333 2.975 9.10486 3.52431 8.64792 3.98125C8.19097 4.43819 7.64167 4.66667 7 4.66667V9.33333C7.64167 9.33333 8.19097 9.56181 8.64792 10.0188C9.10486 10.4757 9.33333 11.025 9.33333 11.6667ZM22.1667 18.6667H2.33333C1.69167 18.6667 1.14236 18.4382 0.685417 17.9813C0.228472 17.5243 0 16.975 0 16.3333V3.5H2.33333V16.3333H22.1667V18.6667ZM7 11.6667V2.33333V11.6667Z" fill="#5D3F3C"/>
</svg>
